# xmcd
#
# Track frame offsets:
#  150
#  15494
#  32977
#  60429
#  87910
#  103692
#  119799
#  137829
#  157689
#  174059
#  205768
#  230077
#
# Disc length: 3268 seconds
#
# Revision: 0
# Processed by: cddbd v1.5.1PL0 Copyright (c) Steve Scherf et al.
# Submitted via: Collectorz.com Music Collector 6.9
#
DISCID=950cc20c
DTITLE=Bobby Mason - Laid Back Up Front
DYEAR=2004
DGENRE=Rock
TTITLE0=Carol
TTITLE1=Hand Jive
TTITLE2=Feels Like Rain
TTITLE3=St James Infirmary
TTITLE4=Nadine
TTITLE5=Locals Dance
TTITLE6=Sick and Tired
TTITLE7=No Expectations
TTITLE8=Stagger Lee
TTITLE9=Equal Opportunity Blues
TTITLE10=I Wish It Would Rain
TTITLE11=Rollin'
EXTD=
EXTT0=
EXTT1=
EXTT2=
EXTT3=
EXTT4=
EXTT5=
EXTT6=
EXTT7=
EXTT8=
EXTT9=
EXTT10=
EXTT11=
PLAYORDER=
